<svg width="18" height="18" viewBox="0 0 18 18" fill="none" xmlns="http://www.w3.org/2000/svg">
<path fill-rule="evenodd" clip-rule="evenodd" d="M3.76662 1.78233C2.86477 1.89956 2.03617 2.34054 1.43518 3.02329C0.832705 3.70772 0.500247 4.58821 0.5 5.50003M3.76662 1.78233L5.65127 6.17985L5.65268 6.18312L4.09207 8.55675L4.0891 8.56129C3.9497 8.7767 3.86788 9.02426 3.85147 9.28031C3.83505 9.53637 3.88459 9.79235 3.99535 10.0238L4.67187 9.70003L3.99685 10.0269C4.84248 11.7732 6.25454 13.1816 8.00298 14.0228L8.00716 14.0248C8.24257 14.1362 8.50296 14.1845 8.76269 14.1647C9.02162 14.1451 9.271 14.0585 9.48643 13.9136C9.48709 13.9131 9.48775 13.9127 9.48841 13.9123L11.8291 12.3487L16.2165 14.2329L16.2177 14.2334C16.1005 15.1353 15.6595 15.9639 14.9767 16.5649C14.2923 17.1673 13.4118 17.4998 12.5 17.5M5.34841 9.37628C6.04583 10.8147 7.20903 11.9751 8.64911 12.669L8.65214 12.667L10.9941 11.1026C11.2019 10.9623 11.4418 10.8766 11.6915 10.8536C11.9413 10.8306 12.1928 10.871 12.4228 10.9711C12.4237 10.9715 12.4246 10.9719 12.4255 10.9722L16.8052 12.8532C17.105 12.9792 17.3555 13.1997 17.5183 13.4813C17.6819 13.7642 17.748 14.0931 17.7064 14.4172M5.34841 9.37628L6.91106 6.99956L6.91604 6.99188C7.04868 6.78468 7.12831 6.54804 7.14793 6.3028C7.16749 6.05831 7.12679 5.81275 7.02942 5.58765L5.14689 1.19508C5.02097 0.895166 4.80038 0.644625 4.51873 0.48174C4.23581 0.318127 3.90697 0.252028 3.58281 0.293613M0.5 5.50003C0.500045 8.68257 1.76432 11.7349 4.01472 13.9853C6.26512 16.2357 9.31746 17.5 12.5 17.5" fill="#2E2C70"/>
</svg>
