<svg width="26" height="26" viewBox="0 0 26 26" fill="none" xmlns="http://www.w3.org/2000/svg">
<path d="M13 26C15.5712 26 18.0846 25.2376 20.2224 23.8091C22.3602 22.3806 24.0265 20.3503 25.0104 17.9749C25.9944 15.5994 26.2518 12.9856 25.7502 10.4638C25.2486 7.94207 24.0105 5.62569 22.1924 3.80761C20.3743 1.98953 18.0579 0.751399 15.5362 0.249791C13.0144 -0.251817 10.4006 0.00562531 8.02511 0.989565C5.64967 1.97351 3.61935 3.63975 2.19089 5.77759C0.762432 7.91542 -4.36077e-06 10.4288 -4.58555e-06 13C0.00660217 16.4458 1.37836 19.7485 3.81491 22.1851C6.25145 24.6216 9.55421 25.9934 13 26ZM8 12L15.5875 12L13.05 9.4625C12.863 9.27503 12.758 9.02105 12.758 8.75625C12.758 8.49145 12.863 8.23746 13.05 8.05C13.1431 7.95632 13.2543 7.88253 13.3767 7.83311C13.4992 7.78369 13.6305 7.75967 13.7625 7.7625C13.8926 7.7599 14.0219 7.78409 14.1424 7.83354C14.2628 7.883 14.3717 7.95667 14.4625 8.05L18.7 12.2875C18.7942 12.3812 18.8705 12.4913 18.925 12.6125C19.0251 12.8611 19.0251 13.1389 18.925 13.3875C18.8705 13.5087 18.7942 13.6188 18.7 13.7125L14.4625 17.95C14.2723 18.1224 14.023 18.215 13.7664 18.2086C13.5098 18.2023 13.2654 18.0976 13.0839 17.9161C12.9024 17.7345 12.7977 17.4902 12.7913 17.2336C12.785 16.9769 12.8776 16.7277 13.05 16.5375L15.5875 14L8 14C7.73478 14 7.48042 13.8946 7.29289 13.7071C7.10535 13.5196 7 13.2652 7 13C7 12.7348 7.10535 12.4804 7.29289 12.2929C7.48042 12.1054 7.73478 12 8 12Z" fill="#BDBDBD"/>
</svg>
