<svg width="24" height="16" viewBox="0 0 24 16" fill="none" xmlns="http://www.w3.org/2000/svg">
<g clip-path="url(#clip0_125_534)">
<path d="M0 0H24V16.0002H0V0Z" fill="#F0F0F0"/>
<path d="M13.5 -0.000244141H10.5V6.49972H0V9.49972H10.5V15.9997H13.5V9.49972H24V6.49972H13.5V-0.000244141Z" fill="#D80027"/>
<path d="M18.4589 10.7825L24.0002 13.861V10.7825H18.4589ZM14.6089 10.7825L24.0002 15.9998V14.5245L17.2646 10.7825H14.6089ZM21.4987 15.9998L14.6089 12.1718V15.9998H21.4987Z" fill="#0052B4"/>
<path d="M14.6089 10.7825L24.0002 15.9998V14.5245L17.2646 10.7825H14.6089Z" fill="#F0F0F0"/>
<path d="M14.6089 10.7825L24.0002 15.9998V14.5245L17.2646 10.7825H14.6089Z" fill="#D80027"/>
<path d="M4.23473 10.7822L0 13.1349V10.7822H4.23473ZM9.39131 11.4457V15.9996H1.19489L9.39131 11.4457Z" fill="#0052B4"/>
<path d="M6.73561 10.7825L0 14.5245V15.9998L9.39131 10.7825H6.73561Z" fill="#D80027"/>
<path d="M5.54133 5.21713L0 2.13857V5.21713H5.54133ZM9.39131 5.21713L0 -0.000244141V1.4751L6.73561 5.21713H9.39131ZM2.50153 -0.000244141L9.39131 3.82776V-0.000244141H2.50153Z" fill="#0052B4"/>
<path d="M9.39131 5.21713L0 -0.000244141V1.4751L6.73561 5.21713H9.39131Z" fill="#F0F0F0"/>
<path d="M9.39131 5.21713L0 -0.000244141V1.4751L6.73561 5.21713H9.39131Z" fill="#D80027"/>
<path d="M19.7655 5.21742L24.0002 2.86477V5.21742H19.7655ZM14.6089 4.55395V0H22.8053L14.6089 4.55395Z" fill="#0052B4"/>
<path d="M17.2646 5.21713L24.0002 1.4751V-0.000244141L14.6089 5.21713H17.2646Z" fill="#D80027"/>
</g>
<defs>
<clipPath id="clip0_125_534">
<rect y="-0.000244141" width="24" height="16.0001" rx="4" fill="white"/>
</clipPath>
</defs>
</svg>
